# xmcd CD database file
#
# Track frame offsets:
#	150
#	18463
#	38790
#
# Disc length: 758 seconds
#
# Revision: 0
# Processed by: cddbd v1.5.1PL2 Copyright (c) Steve Scherf et al.
# Submitted via: CDex 1.51
#
DISCID=1b02f403
DTITLE=Blue - FACE
DYEAR=1900
DGENRE=JPop
TTITLE0=FACE
TTITLE1=Senseless lies
TTITLE2=FACE  (instrumental)
EXTD=
EXTT0=
EXTT1=
EXTT2=
PLAYORDER=
